<?xml version="1.0" encoding="UTF-8"?>
<svg width="100%" height="100%" viewBox="0 0 45 45" version="1.1" xmlns="http://www.w3.org/2000/svg" xmlns:xlink="http://www.w3.org/1999/xlink">
    <!-- Generator: Sketch 43.2 (39069) - http://www.bohemiancoding.com/sketch -->
    <title>Artboard 3 Copy 2</title>
    <desc>Created with Sketch.</desc>
    <defs></defs>
    <g id="Page-1" stroke="none" stroke-width="1" fill="none" fill-rule="evenodd">
        <g id="Artboard-3-Copy-2" fill-rule="nonzero" fill="#FFFFFF">
            <g id="1495289484_volume-70px" transform="translate(15.000000, 15.000000)">
                <path d="M6.73684211,2.48955882 L6.73684211,12.4980882 L2.80336842,8.37264706 L1.68421053,8.37264706 L1.68421053,6.61764706 L2.80378947,6.61764706 L6.73684211,2.48955882 L6.73684211,2.48955882 Z M8.42105263,0 L6.72926316,0 L2.10526316,4.85294118 L0,4.85294118 L0,10.1373529 L2.10526316,10.1373529 L6.74147368,15 L8.42105263,15 L8.42105263,0 L8.42105263,0 Z" id="Shape"></path>
            </g>
            <path d="M29.7929441,22.5 L31.7322461,20.5606981 C32.0892513,20.2036928 32.0892513,19.6247592 31.7322461,19.2677539 C31.3752408,18.9107487 30.7960786,18.9107487 30.4393019,19.2677539 L28.5,21.2070559 L26.5606981,19.2677539 C26.2036928,18.9107487 25.6247592,18.9107487 25.2677539,19.2677539 C24.9107487,19.6247592 24.9107487,20.2036928 25.2677539,20.5606981 L27.2070559,22.5 L25.2677539,24.4393019 C24.9107487,24.7963072 24.9107487,25.3752408 25.2677539,25.7322461 C25.6247592,26.0892513 26.2039214,26.0892513 26.5606981,25.7322461 L28.5,23.7929441 L30.4393019,25.7322461 C30.7963072,26.0892513 31.3752408,26.0892513 31.7322461,25.7322461 C32.0892513,25.3752408 32.0892513,24.7960786 31.7322461,24.4393019 L29.7929441,22.5 Z" id="Shape"></path>
        </g>
    </g>
</svg>