<?xml version="1.0" encoding="UTF-8"?>
<svg width="100%" height="100%" viewBox="0 0 88 88" version="1.1" xmlns="http://www.w3.org/2000/svg" xmlns:xlink="http://www.w3.org/1999/xlink">
    <!-- Generator: Sketch 39.1 (31720) - http://www.bohemiancoding.com/sketch -->
    <title>Artboard 2</title>
    <desc>Created with Sketch.</desc>
    <defs></defs>
    <g id="Page-1" stroke="none" stroke-width="1" fill="none" fill-rule="evenodd">
        <g id="Artboard-2" fill="#FFFFFF">
            <g id="1495048114_pause">
                <g id="Warstwa_1">
                    <g id="Group">
                        <path d="M74.639,13.091 C66.42,4.872 55.493,0.346 43.868,0.346 C32.243,0.346 21.313,4.872 13.094,13.093 C4.874,21.313 0.347,32.241 0.347,43.865 C0.347,55.489 4.873,66.418 13.093,74.637 C21.313,82.856 32.242,87.384 43.866,87.384 C55.491,87.384 66.419,82.858 74.638,74.638 C82.857,66.418 87.385,55.49 87.385,43.865 C87.386,32.24 82.858,21.311 74.639,13.091 L74.639,13.091 Z M73.224,73.225 C65.382,81.067 54.956,85.385 43.866,85.385 C32.776,85.385 22.349,81.066 14.507,73.224 C6.665,65.382 2.347,54.955 2.347,43.866 C2.347,32.777 6.666,22.35 14.508,14.508 C22.351,6.665 32.778,2.347 43.868,2.347 C54.958,2.347 65.385,6.665 73.225,14.506 C81.067,22.348 85.386,32.776 85.385,43.866 C85.385,54.956 81.065,65.383 73.224,73.225 L73.224,73.225 Z" id="Shape"></path>
                        <path d="M38.195,28.692 C37.642,28.692 37.195,29.139 37.195,29.692 L37.195,58.038 C37.195,58.591 37.642,59.038 38.195,59.038 C38.748,59.038 39.195,58.591 39.195,58.038 L39.195,29.692 C39.195,29.14 38.748,28.692 38.195,28.692 L38.195,28.692 Z" id="Shape"></path>
                        <path d="M49.534,28.692 C48.981,28.692 48.534,29.139 48.534,29.692 L48.534,58.038 C48.534,58.591 48.981,59.038 49.534,59.038 C50.087,59.038 50.534,58.591 50.534,58.038 L50.534,29.692 C50.534,29.14 50.087,28.692 49.534,28.692 L49.534,28.692 Z" id="Shape"></path>
                    </g>
                </g>
            </g>
        </g>
    </g>
</svg>
