<?xml version="1.0" encoding="UTF-8"?>
<svg width="100%" height="100%" viewBox="0 0 88 88" version="1.1" xmlns="http://www.w3.org/2000/svg" xmlns:xlink="http://www.w3.org/1999/xlink">
    <!-- Generator: Sketch 39.1 (31720) - http://www.bohemiancoding.com/sketch -->
    <title>Artboard</title>
    <desc>Created with Sketch.</desc>
    <defs></defs>
    <g id="Page-1" stroke="none" stroke-width="1" fill="none" fill-rule="evenodd">
        <g id="Artboard" fill="#FFFFFF">
            <g id="1495048140_play">
                <g id="Warstwa_1">
                    <g id="Group">
                        <path d="M74.628,13.092 C66.408,4.872 55.479,0.346 43.854,0.346 C32.23,0.346 21.301,4.872 13.082,13.092 C-3.886,30.061 -3.885,57.67 13.083,74.638 C21.303,82.858 32.232,87.385 43.856,87.385 C55.48,87.385 66.409,82.859 74.628,74.639 C82.847,66.419 87.375,55.491 87.375,43.866 C87.375,32.241 82.848,21.312 74.628,13.092 L74.628,13.092 Z M73.214,73.225 C65.372,81.067 54.945,85.385 43.856,85.385 C32.767,85.385 22.339,81.066 14.497,73.224 C-1.691,57.036 -1.691,30.695 14.496,14.506 C22.338,6.664 32.765,2.346 43.854,2.346 C54.945,2.346 65.372,6.664 73.214,14.506 C81.056,22.349 85.375,32.775 85.375,43.865 C85.375,54.955 81.056,65.382 73.214,73.225 L73.214,73.225 Z" id="Shape"></path>
                        <path d="M38.893,28.983 C38.502,28.592 37.87,28.592 37.479,28.983 C37.088,29.374 37.088,30.006 37.479,30.397 L50.945,43.863 L37.478,57.331 C37.087,57.722 37.087,58.354 37.478,58.745 C37.673,58.94 37.929,59.038 38.185,59.038 C38.441,59.038 38.697,58.94 38.892,58.745 L53.065,44.57 C53.456,44.179 53.456,43.547 53.065,43.156 L38.893,28.983 L38.893,28.983 Z" id="Shape"></path>
                    </g>
                </g>
            </g>
        </g>
    </g>
</svg>
