<?xml version="1.0" encoding="UTF-8"?>
<svg width="100%" height="100%" viewBox="0 0 45 45" version="1.1" xmlns="http://www.w3.org/2000/svg" xmlns:xlink="http://www.w3.org/1999/xlink">
    <!-- Generator: Sketch 43.2 (39069) - http://www.bohemiancoding.com/sketch -->
    <title>Artboard 3</title>
    <desc>Created with Sketch.</desc>
    <defs></defs>
    <g id="Page-1" stroke="none" stroke-width="1" fill="none" fill-rule="evenodd">
        <g id="Artboard-3" fill-rule="nonzero" fill="#FFFFFF">
            <g id="1495270848_mix" transform="translate(13.000000, 15.000000)">
                <path d="M0.899555556,12.5 C0.408888889,12.5 0.0817777778,12.1666667 0.0817777778,11.6666667 C0.0817777778,11.1666667 0.408888889,10.8333333 0.899555556,10.8333333 C2.53511111,10.8333333 4.17066667,10.1666667 5.31555556,9 C5.64266667,8.66666667 6.13333333,8.66666667 6.46044444,9 C6.78755556,9.33333333 6.78755556,9.83333333 6.46044444,10.1666667 C4.98844444,11.6666667 2.944,12.5 0.899555556,12.5 Z" id="Shape"></path>
                <g id="Group">
                    <path d="M19.4631111,12.3333333 L17.1733333,14.6666667 C17.0097778,14.8333333 16.7644444,14.9166667 16.6008889,14.9166667 C16.3555556,14.9166667 16.192,14.8333333 16.0284444,14.6666667 C15.7013333,14.3333333 15.7013333,13.8333333 16.0284444,13.5 L16.928,12.5833333 L15.0471111,12.5833333 C12.9208889,12.5833333 10.9582222,11.75 9.48622222,10.25 L5.39733333,6.08333333 C4.25244444,4.91666667 2.61688889,4.25 0.981333333,4.25 C0.490666667,4.25 0.163555556,3.91666667 0.163555556,3.41666667 C0.163555556,2.91666667 0.490666667,2.58333333 0.981333333,2.58333333 C3.02577778,2.58333333 5.07022222,3.41666667 6.54222222,4.91666667 L10.6311111,9.08333333 C11.8577778,10.25 13.4115556,10.9166667 15.0471111,10.9166667 L16.928,10.9166667 L16.0284444,10 C15.7013333,9.66666667 15.7013333,9.16666667 16.0284444,8.83333333 C16.3555556,8.5 16.8462222,8.5 17.1733333,8.83333333 L19.4631111,11.1666667 C19.7902222,11.4166667 19.7902222,12 19.4631111,12.3333333 Z" id="Shape"></path>
                    <path d="M19.4631111,3.91666667 L17.1733333,6.25 C17.0097778,6.41666667 16.7644444,6.5 16.6008889,6.5 C16.3555556,6.5 16.192,6.41666667 16.0284444,6.25 C15.7013333,5.91666667 15.7013333,5.41666667 16.0284444,5.08333333 L16.928,4.16666667 L15.0471111,4.16666667 C13.4115556,4.16666667 11.776,4.83333333 10.6311111,6 C10.4675556,6.16666667 10.2222222,6.25 10.0586667,6.25 C9.81333333,6.25 9.64977778,6.16666667 9.48622222,6 C9.15911111,5.66666667 9.15911111,5.16666667 9.48622222,4.83333333 C10.9582222,3.33333333 12.9208889,2.5 15.0471111,2.5 L16.928,2.5 L16.0284444,1.58333333 C15.7013333,1.25 15.7013333,0.75 16.0284444,0.416666667 C16.3555556,0.0833333333 16.8462222,0.0833333333 17.1733333,0.416666667 L19.4631111,2.75 C19.7902222,3 19.7902222,3.58333333 19.4631111,3.91666667 Z" id="Shape"></path>
                </g>
            </g>
        </g>
    </g>
</svg>
