<?xml version="1.0" encoding="UTF-8"?>
<svg width="100%" height="100%" viewBox="0 0 45 45" version="1.1" xmlns="http://www.w3.org/2000/svg" xmlns:xlink="http://www.w3.org/1999/xlink">
    <!-- Generator: Sketch 43.2 (39069) - http://www.bohemiancoding.com/sketch -->
    <title>Artboard 3 Copy</title>
    <desc>Created with Sketch.</desc>
    <defs></defs>
    <g id="Page-1" stroke="none" stroke-width="1" fill="none" fill-rule="evenodd">
        <g id="Artboard-3-Copy" fill-rule="nonzero" fill="#FFFFFF">
            <g id="1495289484_volume-70px" transform="translate(15.000000, 15.000000)">
                <path d="M11.1498947,3.75838235 L9.96084211,5.00426471 C10.5705263,5.64308824 10.9473684,6.52544118 10.9473684,7.5 C10.9473684,8.47455882 10.5705263,9.35691176 9.96084211,9.99573529 L11.1498947,11.2416176 C12.0648421,10.2829412 12.6315789,8.95941176 12.6315789,7.5 C12.6315789,6.04058824 12.0648421,4.71705882 11.1498947,3.75838235 Z" id="Shape"></path>
                <path d="M13.5309474,1.26352941 L12.3427368,2.50852941 C13.5616842,3.78617647 14.3157895,5.55088235 14.3157895,7.5 C14.3157895,9.44911765 13.5616842,11.2138235 12.3427368,12.4914706 L13.5309474,13.7364706 C15.0555789,12.1385294 16,9.93264706 16,7.5 C16,5.06735294 15.0555789,2.86147059 13.5309474,1.26352941 Z" id="Shape"></path>
                <path d="M6.73684211,2.48955882 L6.73684211,12.4980882 L2.80336842,8.37264706 L1.68421053,8.37264706 L1.68421053,6.61764706 L2.80378947,6.61764706 L6.73684211,2.48955882 L6.73684211,2.48955882 Z M8.42105263,0 L6.72926316,0 L2.10526316,4.85294118 L0,4.85294118 L0,10.1373529 L2.10526316,10.1373529 L6.74147368,15 L8.42105263,15 L8.42105263,0 L8.42105263,0 Z" id="Shape"></path>
            </g>
        </g>
    </g>
</svg>